<svg width="1200" height="1600" viewBox="0 0 1200 1600" fill="none" xmlns="http://www.w3.org/2000/svg">
  <defs>
    <linearGradient id="bg" x1="62" y1="78" x2="1120" y2="1494" gradientUnits="userSpaceOnUse">
      <stop offset="0" stop-color="#0C3A53"/>
      <stop offset="0.46" stop-color="#16637A"/>
      <stop offset="1" stop-color="#1F8A70"/>
    </linearGradient>
    <radialGradient id="glowA" cx="0" cy="0" r="1" gradientUnits="userSpaceOnUse" gradientTransform="translate(270 300) rotate(44) scale(520 430)">
      <stop stop-color="#8EE3D8" stop-opacity="0.9"/>
      <stop offset="1" stop-color="#8EE3D8" stop-opacity="0"/>
    </radialGradient>
    <radialGradient id="glowB" cx="0" cy="0" r="1" gradientUnits="userSpaceOnUse" gradientTransform="translate(980 1310) rotate(119) scale(460 440)">
      <stop stop-color="#F4A261" stop-opacity="0.55"/>
      <stop offset="1" stop-color="#F4A261" stop-opacity="0"/>
    </radialGradient>
    <linearGradient id="panel" x1="182" y1="430" x2="1024" y2="1178" gradientUnits="userSpaceOnUse">
      <stop offset="0" stop-color="#F7F4ED" stop-opacity="0.97"/>
      <stop offset="1" stop-color="#ECE5D7" stop-opacity="0.95"/>
    </linearGradient>
    <linearGradient id="line" x1="334" y1="567" x2="904" y2="1080" gradientUnits="userSpaceOnUse">
      <stop stop-color="#2A7C82"/>
      <stop offset="1" stop-color="#1F8A70"/>
    </linearGradient>
  </defs>

  <rect width="1200" height="1600" rx="42" fill="url(#bg)"/>
  <ellipse cx="270" cy="300" rx="390" ry="290" fill="url(#glowA)"/>
  <ellipse cx="980" cy="1310" rx="350" ry="300" fill="url(#glowB)"/>

  <rect x="160" y="380" width="880" height="860" rx="38" fill="url(#panel)"/>
  <rect x="236" y="496" width="730" height="66" rx="18" fill="#D7EAE6"/>
  <rect x="236" y="582" width="520" height="26" rx="13" fill="#B9CDD3"/>
  <rect x="236" y="628" width="360" height="26" rx="13" fill="#B9CDD3"/>

  <rect x="236" y="738" width="626" height="56" rx="18" fill="#E6E2D6"/>
  <rect x="236" y="814" width="500" height="24" rx="12" fill="#D3CCBD"/>

  <path d="M236 1035C287 958 332 927 396 927C465 927 516 961 560 1010C603 1060 644 1095 708 1095C771 1095 818 1054 866 972"
        stroke="url(#line)" stroke-width="22" stroke-linecap="round"/>
  <circle cx="402" cy="925" r="21" fill="#2A7C82"/>
  <circle cx="558" cy="1008" r="18" fill="#1F8A70"/>
  <circle cx="704" cy="1094" r="18" fill="#1F8A70"/>
  <circle cx="868" cy="972" r="20" fill="#2A7C82"/>

  <rect x="210" y="1268" width="286" height="82" rx="20" fill="#173E56" fill-opacity="0.7"/>
  <rect x="520" y="1268" width="470" height="82" rx="20" fill="#174C5E" fill-opacity="0.68"/>
  <rect x="210" y="1366" width="780" height="82" rx="20" fill="#1A5B66" fill-opacity="0.52"/>
</svg>
